<?xml version="1.0" encoding="UTF-8" standalone="no"?>
<!DOCTYPE svg PUBLIC "-//W3C//DTD SVG 1.1//EN" "http://www.w3.org/Graphics/SVG/1.1/DTD/svg11.dtd">
<svg width="100%" height="100%" viewBox="0 0 815 742" version="1.1" xmlns="http://www.w3.org/2000/svg" xmlns:xlink="http://www.w3.org/1999/xlink" xml:space="preserve" xmlns:serif="http://www.serif.com/" style="fill-rule:evenodd;clip-rule:evenodd;stroke-linecap:round;stroke-linejoin:round;stroke-miterlimit:1.5;">
    <g id="Artboard1" transform="matrix(1.0204,0,0,0.961863,-129.272,-92.5888)">
        <rect x="126.687" y="96.26" width="798.136" height="770.486" style="fill:none;"/>
        <g transform="matrix(1.0974,0,0,1.28788,-2.12795,206.61)">
            <ellipse cx="476.018" cy="218.233" rx="275.928" ry="278.986" style="fill:rgb(202,49,23);"/>
        </g>
        <g transform="matrix(0.980006,0,0,1.03965,19.1644,-34.0952)">
            <path d="M778.233,512.233L795.066,537.191L690.523,541.321L865.735,580.327L831.313,537.944L901.836,504.625L778.233,512.233Z" style="fill:rgb(250,176,30);"/>
        </g>
        <g transform="matrix(0.980006,0,0,1.03965,19.1644,-34.0952)">
            <path d="M653.685,680.379L670.469,712.17L657.919,721.789L705.014,759.29L685.167,723.537L697.693,714.19L653.685,680.379Z" style="fill:rgb(250,176,30);"/>
        </g>
        <g transform="matrix(0.980006,0,0,1.03965,19.1644,-34.0952)">
            <path d="M666.249,593.979L795.765,731.616L783.145,676.914L862.103,712.329L749.022,608.733L748.693,641.384L666.249,593.979Z" style="fill:rgb(250,176,30);"/>
        </g>
        <g transform="matrix(0.980006,0,0,1.03965,19.1644,-34.0952)">
            <path d="M745.23,391.905L785.154,405.697L720.531,478.454L863.391,402.959L819.844,391.382L886.631,310.807L745.23,391.905Z" style="fill:rgb(250,176,30);"/>
        </g>
        <g transform="matrix(0.980006,0,0,1.03965,19.1644,-34.0952)">
            <path d="M238.935,403.225L281.064,390.104L138.34,311.175L203.621,389.344L159.455,399.764L304.439,481.501L238.935,403.225Z" style="fill:rgb(250,176,30);"/>
        </g>
        <g transform="matrix(0.980006,0,0,1.03965,15.2214,-32.7039)">
            <path d="M373.864,676.447L328.508,709.814L341.918,719.837L320.38,753.784L368.597,717.686L354.984,708.777L373.864,676.447Z" style="fill:rgb(250,176,30);"/>
        </g>
        <g transform="matrix(0.980006,0,0,1.03965,19.1644,-34.0952)">
            <path d="M359.253,592.717L230.848,728.285L245.14,671.312L165.742,707.218L277.596,606.156L277.096,638.015L359.253,592.717Z" style="fill:rgb(250,176,30);"/>
        </g>
        <g transform="matrix(0.980006,0,0,1.03965,19.1644,-34.0952)">
            <path d="M333.132,538.483L233.74,533.37L249.677,512.059L121.283,503.539L196.259,536.376L162.96,578.397L333.132,538.483Z" style="fill:rgb(250,176,30);"/>
        </g>
        <g transform="matrix(0.980006,0,0,1.03965,19.1644,-34.0952)">
            <clipPath id="_clip1">
                <path d="M333.132,538.483L233.74,533.37L249.677,512.059L121.283,503.539L196.259,536.376L162.96,578.397L333.132,538.483Z"/>
            </clipPath>
            <g clip-path="url(#_clip1)">
                <g transform="matrix(1,0,0,1,1.62842,1.38129)">
                    <path d="M424.616,633.088C424.616,633.088 406.459,621.437 407.16,590.307C407.945,555.388 401.217,543.58 386.68,517.414C373.124,493.015 325.01,445.453 330.906,363.345C336.919,279.617 413.7,194.347 518.312,198.398C639.444,203.088 694.993,312.287 691.436,385.169C688.161,452.289 655.585,477.904 634.453,514.001C611.183,553.752 613.932,582.058 613.932,582.058C613.932,582.058 616.229,595.208 609.662,610.888C603.617,625.319 599.766,634.606 599.766,634.606C599.766,634.606 612.477,637.948 612.085,655.869C611.798,668.985 599.303,675.119 599.303,675.119C599.303,675.119 612.911,682.604 613.202,694.525C613.493,706.446 603.512,712.683 603.512,712.683C603.512,712.683 617.431,720.61 613.467,740.054C610.844,752.923 597.099,759.042 595.645,759.914C594.191,760.787 585.564,759.2 565.908,778.085C550.334,793.047 529.981,803.726 508.737,803.072C470.308,801.889 442.249,767.694 442.249,767.694C442.249,767.694 433.995,759.325 429.052,759.906C424.109,760.488 409.209,753.936 407.675,738.337C406.142,722.738 416.674,715.081 416.674,715.081C416.674,715.081 408.252,708.08 407.895,696.688C407.384,680.391 416.639,676.37 416.639,676.37C416.639,676.37 407.634,669.507 407.878,652.649C408.071,639.353 424.616,633.088 424.616,633.088Z" style="fill:none;stroke:rgb(5,32,53);stroke-width:1px;"/>
                </g>
            </g>
        </g>
        <g transform="matrix(0.980006,0,0,1.03965,19.1644,-34.0952)">
            <path d="M510.816,805.916C510.816,805.916 461.249,791.198 451.622,778.447C441.994,765.696 436.813,759.954 430.641,760.412C424.47,760.869 410.757,754.974 408.928,738.032C407.1,721.09 417.398,717.874 417.398,717.874C417.398,717.874 410.256,707.207 409.57,694.043C408.885,680.879 418.471,677.908 418.471,677.908C418.471,677.908 411.083,674.96 410.411,654.714C409.739,634.468 425.294,634.468 425.294,634.468C425.294,634.468 418.842,630.759 413.293,617.085C407.745,603.41 412.183,570.407 400.718,542.538C389.254,514.67 326.992,457.087 330.848,370.683C334.704,284.278 399.553,203.66 513.183,199.308C626.813,194.957 688.735,295.388 692.783,374.949C696.831,454.51 662.913,475.073 645.168,501.024C627.423,526.976 621.287,540.601 618.481,557.314C615.676,574.027 617.824,607.327 612.795,616.698C607.766,626.07 601.178,637.069 601.178,637.069C601.178,637.069 614.239,641.009 613.513,657.225C612.787,673.44 601.842,677.046 601.842,677.046C601.842,677.046 614.364,682.739 613.907,696.453C613.45,710.168 604.929,715.385 604.929,715.385C604.929,715.385 615.558,722.875 615.113,738.015C614.668,753.154 606.512,759.185 596.518,763.03C586.523,766.876 577.021,774.834 564.678,783.748C552.334,792.663 528.834,807.907 510.816,805.916Z" style="fill:rgb(4,32,52);"/>
        </g>
        <g transform="matrix(0.980006,0,0,1.03965,19.1644,-34.0952)">
            <path d="M513.98,625.273L458.951,625.835C458.951,625.835 440.42,629.68 435.943,612.303C431.466,594.926 428.915,572.999 428.915,572.999C428.915,572.999 422.163,527.561 391.978,481.235C373.397,452.719 350.778,430.955 353.643,354.959C356.163,288.145 429.84,218.192 512.495,220.708C595.149,223.223 664.998,274.431 672.654,365.274C675.789,402.467 664.414,438.891 636.41,476.311C608.406,513.73 606.862,520.987 599.776,538.239C592.69,555.49 605.002,594.889 594.111,608.38C583.22,621.87 564.419,623.533 564.419,623.533L513.98,625.273Z" style="fill:rgb(249,181,36);"/>
        </g>
        <g transform="matrix(0.980006,0,0,1.03965,19.1644,-34.0952)">
            <path d="M440.049,722.602C440.049,722.602 430.302,723.771 430.531,734.469C430.76,745.168 442.588,742.53 442.588,742.53L527.374,733.254C527.374,733.254 546.379,729.121 546.663,721.148C546.947,713.174 541.809,715.346 539.084,714.189C536.358,713.031 485.086,718.613 485.086,718.613L440.049,722.602Z" style="fill:rgb(48,95,109);"/>
        </g>
        <g transform="matrix(0.980006,0,0,1.03965,19.1644,-34.0952)">
            <path d="M439.969,686.914C439.969,686.914 430.207,688.858 430.6,695.997C430.993,703.137 442.556,702.465 442.556,702.465L531.444,692.858C531.444,692.858 548.412,688.288 547.934,681.902C547.456,675.515 535.508,676.428 530.782,675.958C526.056,675.488 439.969,686.914 439.969,686.914Z" style="fill:rgb(48,95,109);"/>
        </g>
        <g transform="matrix(0.980006,0,0,1.03965,19.1644,-34.0952)">
            <path d="M447.699,648.329C447.699,648.329 430.962,648.389 430.688,657.357C430.414,666.326 441.169,665.961 445.319,665.885C449.469,665.809 462.748,665.262 471.111,663.312C479.474,661.362 513.114,658.805 513.494,658.805C513.875,658.805 540.832,653.374 540.832,653.374C540.832,653.374 546.432,651.011 545.205,648.604C543.978,646.198 536.4,647.666 536.4,647.666L447.699,648.329Z" style="fill:rgb(48,95,109);"/>
        </g>
        <g transform="matrix(0.980006,0,0,1.03965,19.1644,-34.0952)">
            <path d="M509.454,584.243L470.626,575.425C470.626,575.425 457.229,576.75 453.728,560.872C450.226,544.993 436.73,499.125 421.794,479.846C406.857,460.568 369.341,422.701 373.564,361.288C377.787,299.875 430.564,240.486 517.911,244.128C605.258,247.769 637.315,330.703 636.564,367.527C635.814,404.352 632.72,432.294 602.498,472.292C572.276,512.289 573.055,529.832 571.227,537.564C569.398,545.295 563.223,564.878 563.223,564.878C563.223,564.878 566.28,577.101 548.759,579.158C531.239,581.215 509.454,584.243 509.454,584.243Z" style="fill:rgb(252,205,84);"/>
        </g>
        <g transform="matrix(0.980006,0,0,1.03965,19.1644,-34.0952)">
            <path d="M574.013,340.764C574.013,340.764 561.162,305.183 537.297,300.403C513.432,295.623 522.317,294.612 522.317,294.612L522.249,272.254C522.249,272.254 523.367,265.97 516.288,265.398C509.209,264.827 503.737,266.065 503.737,266.065C503.737,266.065 500.064,267.363 499.607,272.392C499.15,277.421 499.754,291.672 499.754,291.672C499.754,291.672 500.345,295.592 496.802,296.049C493.259,296.506 447.598,301.874 445.972,345.447C444.346,389.021 493.483,400.888 493.483,400.888C493.483,400.888 499.28,404.059 499.363,410.513C499.445,416.968 498.769,458.648 498.769,458.648C498.769,458.648 500.154,460.471 495.331,460.699C490.507,460.928 475.806,453.786 471.933,443.716C468.061,433.645 462.902,434.007 458.802,434.185C454.702,434.363 443.66,435.277 443.66,435.277C443.66,435.277 437.351,436.978 439.408,442.578C441.465,448.178 447.756,475.718 473.061,482.684C498.366,489.65 497.115,490.919 497.115,490.919C497.115,490.919 498.867,491.153 498.752,495.039C498.638,498.925 499.784,517.269 499.784,517.269C499.784,517.269 497.24,522.263 503.183,523.635C509.126,525.006 518.705,524.466 518.705,524.466C518.705,524.466 522.435,524.268 521.915,517.35C521.395,510.433 522.446,495.118 522.446,495.118C522.446,495.118 519.454,490.949 524.826,490.035C530.197,489.121 574.827,486.567 580.377,439.417C583.093,416.34 560.764,397.193 557.678,395.479C554.592,393.764 532.453,380.81 528.264,380.581C524.076,380.353 522.527,380.702 522.641,377.274C522.755,373.845 519.657,326.297 522.555,325.922C525.453,325.548 533.927,326.069 538.884,333.437C543.841,340.806 546.294,345.97 547.867,346.345C554.792,347.992 566.74,345.103 569.9,344.76C573.06,344.417 574.013,340.764 574.013,340.764Z" style="fill:rgb(234,123,0);"/>
        </g>
        <g transform="matrix(0.980006,0,0,1.03965,19.1644,-34.0952)">
            <path d="M499.512,370.439L499.059,325.268C499.059,325.268 477.289,327.076 476.346,345.652C475.089,370.399 499.512,370.439 499.512,370.439Z" style="fill:none;"/>
        </g>
        <g transform="matrix(0.980006,0,0,1.03965,19.1644,-34.0952)">
            <path d="M524.005,411.672L523.267,459.151C523.267,459.151 549.493,464.152 549.423,436.524C549.374,417.131 524.005,411.672 524.005,411.672Z" style="fill:none;"/>
        </g>
        <g transform="matrix(0.980006,0,0,1.03965,19.1644,-34.0952)">
            <path d="M523.034,412.301L523.541,459.918C523.541,459.918 549.831,457.73 550.175,437.974C550.519,418.217 523.034,412.301 523.034,412.301Z" style="fill:rgb(255,207,87);"/>
        </g>
        <g transform="matrix(0.980006,0,0,1.03965,19.1644,-34.0952)">
            <path d="M498.504,325.289L498.558,370.965C498.558,370.965 475.913,366.671 475.407,348.35C474.901,330.029 498.504,325.289 498.504,325.289Z" style="fill:rgb(254,207,89);"/>
        </g>
        <g transform="matrix(0.980006,0,0,1.03965,19.9439,-35.9883)">
            <path d="M386.485,409.241C386.485,409.241 368.65,364.849 391.768,321.138C414.886,277.427 445.157,268.858 445.157,268.858C445.157,268.858 411.914,300.688 400.267,331.242C384.726,372.009 386.485,409.241 386.485,409.241Z" style="fill:rgb(253,239,185);"/>
        </g>
        <g transform="matrix(0.980006,0,0,1.03965,19.1644,-34.0952)">
            <path d="M473.524,626.608L489.031,626.676C489.031,626.676 494.457,618.478 494.248,600.3C494.04,582.122 484.61,545.564 484.61,545.564C484.61,545.564 482.329,529.802 475.015,532.088C467.7,534.374 470.647,548.509 470.647,548.509C470.647,548.509 482.065,581.536 481.345,596.596C480.625,611.655 473.524,626.608 473.524,626.608Z" style="fill:rgb(197,135,15);"/>
        </g>
        <g transform="matrix(0.980006,0,0,1.03965,19.1644,-34.0952)">
            <path d="M545.722,625.375L532.477,626.729C532.477,626.729 522.921,611.518 526.025,593.844C529.129,576.17 538.746,539.814 538.746,539.814C538.746,539.814 539.211,530.26 546.741,532.18C554.27,534.101 552.685,538.287 551.618,545.754C550.552,553.221 543.758,577.349 541.794,584.331C539.831,591.313 538.265,598.898 539.678,606.714C541.092,614.531 545.722,625.375 545.722,625.375Z" style="fill:rgb(197,135,15);"/>
        </g>
    </g>
</svg>
